<mxfile host="app.diagrams.net" modified="2024-04-02T19:03:31.962Z" agent="Mozilla/5.0 (Windows NT 10.0; Win64; x64) AppleWebKit/537.36 (KHTML, like Gecko) Chrome/123.0.0.0 Safari/537.36" etag="8JDRSj2FfmA51BZ11YIs" version="24.2.1" type="github">
  <diagram name="Page-1" id="1dKo0uYavsQ7Z88xDiE_">
    <mxGraphModel dx="1974" dy="1759" grid="1" gridSize="10" guides="1" tooltips="1" connect="1" arrows="1" fold="1" page="1" pageScale="1" pageWidth="827" pageHeight="1169" math="0" shadow="0">
      <root>
        <mxCell id="0" />
        <mxCell id="1" parent="0" />
        <mxCell id="1yT-rM3PaVei-R1yD0Ry-3" value="&lt;p style=&quot;text-align: left; margin: 4px 0px 0px;&quot;&gt;&lt;i&gt;&lt;span style=&quot;white-space: pre;&quot;&gt;&#x9;&lt;span style=&quot;white-space: pre;&quot;&gt;&#x9;&lt;/span&gt; &lt;/span&gt;&amp;nbsp; &amp;lt;&amp;lt;abstract&lt;/i&gt;&lt;i style=&quot;background-color: initial;&quot;&gt;&amp;gt;&amp;gt;&lt;/i&gt;&lt;/p&gt;&lt;p style=&quot;margin:0px;margin-top:4px;text-align:center;&quot;&gt;&lt;b&gt;Screen&lt;/b&gt;&lt;/p&gt;&lt;hr size=&quot;1&quot; style=&quot;border-style:solid;&quot;&gt;&lt;p style=&quot;margin:0px;margin-left:4px;&quot;&gt;+ game: PikachuGame&lt;br&gt;&lt;/p&gt;&lt;hr size=&quot;1&quot; style=&quot;border-style:solid;&quot;&gt;&lt;p style=&quot;margin:0px;margin-left:4px;&quot;&gt;+ __init__(self, game : PikachuGame): None&lt;br&gt;&lt;/p&gt;&lt;p style=&quot;margin:0px;margin-left:4px;&quot;&gt;# display(self): None&lt;/p&gt;&lt;p style=&quot;margin:0px;margin-left:4px;&quot;&gt;&lt;br&gt;# draw_dark_image(self,image: Surface, image_rect: Rect, color: tuple) : None&lt;/p&gt;&lt;p style=&quot;margin:0px;margin-left:4px;&quot;&gt;&lt;br&gt;&lt;/p&gt;&lt;p style=&quot;margin:0px;margin-left:4px;&quot;&gt;# handle_event(self,event: event.Event): None&lt;/p&gt;" style="verticalAlign=top;align=left;overflow=fill;html=1;whiteSpace=wrap;strokeColor=default;fontFamily=Helvetica;fontSize=12;fontColor=default;fillColor=default;" vertex="1" parent="1">
          <mxGeometry x="320" y="310" width="190" height="240" as="geometry" />
        </mxCell>
        <mxCell id="1yT-rM3PaVei-R1yD0Ry-4" value="introScreen&lt;div&gt;&lt;br&gt;&lt;/div&gt;" style="swimlane;fontStyle=1;align=center;verticalAlign=top;childLayout=stackLayout;horizontal=1;startSize=26;horizontalStack=0;resizeParent=1;resizeParentMax=0;resizeLast=0;collapsible=1;marginBottom=0;whiteSpace=wrap;html=1;strokeColor=default;fontFamily=Helvetica;fontSize=12;fontColor=default;fillColor=default;" vertex="1" parent="1">
          <mxGeometry x="110" y="680" width="160" height="280" as="geometry" />
        </mxCell>
        <mxCell id="1yT-rM3PaVei-R1yD0Ry-5" value="- logo_image: Surface" style="text;strokeColor=none;fillColor=none;align=left;verticalAlign=top;spacingLeft=4;spacingRight=4;overflow=hidden;rotatable=0;points=[[0,0.5],[1,0.5]];portConstraint=eastwest;whiteSpace=wrap;html=1;fontFamily=Helvetica;fontSize=12;fontColor=default;" vertex="1" parent="1yT-rM3PaVei-R1yD0Ry-4">
          <mxGeometry y="26" width="160" height="44" as="geometry" />
        </mxCell>
        <mxCell id="1yT-rM3PaVei-R1yD0Ry-6" value="" style="line;strokeWidth=1;fillColor=none;align=left;verticalAlign=middle;spacingTop=-1;spacingLeft=3;spacingRight=3;rotatable=0;labelPosition=right;points=[];portConstraint=eastwest;strokeColor=inherit;fontFamily=Helvetica;fontSize=12;fontColor=default;" vertex="1" parent="1yT-rM3PaVei-R1yD0Ry-4">
          <mxGeometry y="70" width="160" height="8" as="geometry" />
        </mxCell>
        <mxCell id="1yT-rM3PaVei-R1yD0Ry-7" value="&lt;p style=&quot;margin: 0px 0px 0px 4px;&quot;&gt;+ __init__(self,game: PikachuGame): None&lt;br&gt;&lt;/p&gt;&lt;p style=&quot;margin: 0px 0px 0px 4px;&quot;&gt;&lt;br&gt;&lt;/p&gt;&lt;p style=&quot;margin: 0px 0px 0px 4px;&quot;&gt;+ display(self):None&lt;/p&gt;&lt;p style=&quot;margin: 0px 0px 0px 4px;&quot;&gt;&lt;br&gt;+ draw_dark_image(self, image: Surface, image_rect: Rect, color: tuple) :&amp;nbsp;&lt;span style=&quot;background-color: initial;&quot;&gt;None&lt;/span&gt;&lt;/p&gt;&lt;p style=&quot;margin: 0px 0px 0px 4px;&quot;&gt;&lt;br&gt;&lt;/p&gt;&lt;p style=&quot;margin: 0px 0px 0px 4px;&quot;&gt;+ handle_event(self,event: event.Event):&amp;nbsp;&lt;span style=&quot;background-color: initial;&quot;&gt;None&lt;/span&gt;&lt;/p&gt;" style="text;strokeColor=none;fillColor=none;align=left;verticalAlign=top;spacingLeft=4;spacingRight=4;overflow=hidden;rotatable=0;points=[[0,0.5],[1,0.5]];portConstraint=eastwest;whiteSpace=wrap;html=1;fontFamily=Helvetica;fontSize=12;fontColor=default;" vertex="1" parent="1yT-rM3PaVei-R1yD0Ry-4">
          <mxGeometry y="78" width="160" height="202" as="geometry" />
        </mxCell>
        <mxCell id="1yT-rM3PaVei-R1yD0Ry-8" value="startScreen&lt;div&gt;&lt;br&gt;&lt;/div&gt;" style="swimlane;fontStyle=1;align=center;verticalAlign=top;childLayout=stackLayout;horizontal=1;startSize=26;horizontalStack=0;resizeParent=1;resizeParentMax=0;resizeLast=0;collapsible=1;marginBottom=0;whiteSpace=wrap;html=1;strokeColor=default;fontFamily=Helvetica;fontSize=12;fontColor=default;fillColor=default;" vertex="1" parent="1">
          <mxGeometry x="300" y="680" width="160" height="390" as="geometry" />
        </mxCell>
        <mxCell id="1yT-rM3PaVei-R1yD0Ry-9" value="- bgStartScreen : Surface&amp;nbsp;&lt;div&gt;- start_button_image :&amp;nbsp;&lt;span style=&quot;background-color: initial;&quot;&gt;Surface&amp;nbsp;&lt;/span&gt;&lt;/div&gt;&lt;div&gt;- play_button_rect :&amp;nbsp;&lt;span style=&quot;background-color: initial;&quot;&gt;Rect&lt;/span&gt;&lt;/div&gt;" style="text;strokeColor=none;fillColor=none;align=left;verticalAlign=top;spacingLeft=4;spacingRight=4;overflow=hidden;rotatable=0;points=[[0,0.5],[1,0.5]];portConstraint=eastwest;whiteSpace=wrap;html=1;fontFamily=Helvetica;fontSize=12;fontColor=default;" vertex="1" parent="1yT-rM3PaVei-R1yD0Ry-8">
          <mxGeometry y="26" width="160" height="104" as="geometry" />
        </mxCell>
        <mxCell id="1yT-rM3PaVei-R1yD0Ry-10" value="" style="line;strokeWidth=1;fillColor=none;align=left;verticalAlign=middle;spacingTop=-1;spacingLeft=3;spacingRight=3;rotatable=0;labelPosition=right;points=[];portConstraint=eastwest;strokeColor=inherit;fontFamily=Helvetica;fontSize=12;fontColor=default;" vertex="1" parent="1yT-rM3PaVei-R1yD0Ry-8">
          <mxGeometry y="130" width="160" height="8" as="geometry" />
        </mxCell>
        <mxCell id="1yT-rM3PaVei-R1yD0Ry-11" value="&lt;p style=&quot;margin: 0px 0px 0px 4px;&quot;&gt;+ __init__(self, game: PikachuGame):&amp;nbsp;&lt;span style=&quot;background-color: initial;&quot;&gt;None&lt;/span&gt;&lt;br&gt;&lt;/p&gt;&lt;p style=&quot;margin: 0px 0px 0px 4px;&quot;&gt;&lt;br&gt;&lt;/p&gt;&lt;p style=&quot;margin: 0px 0px 0px 4px;&quot;&gt;+ display(self) :&amp;nbsp;&lt;span style=&quot;background-color: initial;&quot;&gt;None&lt;/span&gt;&lt;/p&gt;&lt;p style=&quot;margin: 0px 0px 0px 4px;&quot;&gt;&lt;br&gt;+ draw_dark_image(self, image: Surface, image_rect: Rect, color: tuple) :&lt;span style=&quot;background-color: initial;&quot;&gt;None&lt;/span&gt;&lt;/p&gt;&lt;p style=&quot;margin: 0px 0px 0px 4px;&quot;&gt;&lt;br&gt;&lt;/p&gt;&lt;p style=&quot;margin: 0px 0px 0px 4px;&quot;&gt;+ handle_event(self, event: event.Event) :&amp;nbsp;&lt;span style=&quot;background-color: initial;&quot;&gt;None&lt;/span&gt;&lt;/p&gt;" style="text;strokeColor=none;fillColor=none;align=left;verticalAlign=top;spacingLeft=4;spacingRight=4;overflow=hidden;rotatable=0;points=[[0,0.5],[1,0.5]];portConstraint=eastwest;whiteSpace=wrap;html=1;fontFamily=Helvetica;fontSize=12;fontColor=default;" vertex="1" parent="1yT-rM3PaVei-R1yD0Ry-8">
          <mxGeometry y="138" width="160" height="252" as="geometry" />
        </mxCell>
        <mxCell id="1yT-rM3PaVei-R1yD0Ry-17" value="Extends" style="endArrow=block;endSize=16;endFill=0;html=1;rounded=0;fontFamily=Helvetica;fontSize=12;fontColor=default;entryX=0.363;entryY=1.003;entryDx=0;entryDy=0;entryPerimeter=0;exitX=0.438;exitY=-0.023;exitDx=0;exitDy=0;exitPerimeter=0;" edge="1" parent="1" source="1yT-rM3PaVei-R1yD0Ry-4" target="1yT-rM3PaVei-R1yD0Ry-3">
          <mxGeometry width="160" relative="1" as="geometry">
            <mxPoint x="190" y="770" as="sourcePoint" />
            <mxPoint x="350" y="770" as="targetPoint" />
          </mxGeometry>
        </mxCell>
        <mxCell id="1yT-rM3PaVei-R1yD0Ry-18" value="Extends" style="endArrow=block;endSize=16;endFill=0;html=1;rounded=0;fontFamily=Helvetica;fontSize=12;fontColor=default;exitX=0.5;exitY=0;exitDx=0;exitDy=0;" edge="1" parent="1" source="1yT-rM3PaVei-R1yD0Ry-8" target="1yT-rM3PaVei-R1yD0Ry-3">
          <mxGeometry width="160" relative="1" as="geometry">
            <mxPoint x="180" y="888" as="sourcePoint" />
            <mxPoint x="400" y="700" as="targetPoint" />
          </mxGeometry>
        </mxCell>
        <mxCell id="1yT-rM3PaVei-R1yD0Ry-19" value="Extends" style="endArrow=block;endSize=16;endFill=0;html=1;rounded=0;fontFamily=Helvetica;fontSize=12;fontColor=default;entryX=0.589;entryY=1.003;entryDx=0;entryDy=0;entryPerimeter=0;exitX=0.438;exitY=0;exitDx=0;exitDy=0;exitPerimeter=0;" edge="1" parent="1" source="1yT-rM3PaVei-R1yD0Ry-20" target="1yT-rM3PaVei-R1yD0Ry-3">
          <mxGeometry width="160" relative="1" as="geometry">
            <mxPoint x="600" y="870" as="sourcePoint" />
            <mxPoint x="399" y="701" as="targetPoint" />
          </mxGeometry>
        </mxCell>
        <mxCell id="1yT-rM3PaVei-R1yD0Ry-20" value="playScreen&lt;div&gt;&lt;br&gt;&lt;/div&gt;" style="swimlane;fontStyle=1;align=center;verticalAlign=top;childLayout=stackLayout;horizontal=1;startSize=26;horizontalStack=0;resizeParent=1;resizeParentMax=0;resizeLast=0;collapsible=1;marginBottom=0;whiteSpace=wrap;html=1;strokeColor=default;fontFamily=Helvetica;fontSize=12;fontColor=default;fillColor=default;" vertex="1" parent="1">
          <mxGeometry x="510" y="680" width="190" height="1020" as="geometry" />
        </mxCell>
        <mxCell id="1yT-rM3PaVei-R1yD0Ry-21" value="&lt;div&gt;&lt;span style=&quot;background-color: initial;&quot;&gt;- backgroundList : List&lt;/span&gt;&lt;br&gt;&lt;/div&gt;&lt;div&gt;- boardPlay : boardPlay&lt;/div&gt;&lt;div&gt;- time_icon : Surface&lt;/div&gt;&lt;div&gt;- Time : Clock&lt;/div&gt;&lt;div&gt;- live_image : Surface&lt;/div&gt;&lt;div&gt;- list_level : List&lt;/div&gt;&lt;div&gt;- font_pikachu : Font&lt;/div&gt;&lt;div&gt;- game_over_background : Surface&lt;/div&gt;&lt;div&gt;- victory_background : Surface&lt;/div&gt;&lt;div&gt;- pause_btn : Surface&lt;/div&gt;&lt;div&gt;- pause_panel_image : Surface&lt;/div&gt;&lt;div&gt;- continue_btn : Surface&lt;/div&gt;&lt;div&gt;- replay_btn : Surface&lt;/div&gt;&lt;div&gt;- home_btn : Surface&lt;/div&gt;" style="text;strokeColor=none;fillColor=none;align=left;verticalAlign=top;spacingLeft=4;spacingRight=4;overflow=hidden;rotatable=0;points=[[0,0.5],[1,0.5]];portConstraint=eastwest;whiteSpace=wrap;html=1;fontFamily=Helvetica;fontSize=12;fontColor=default;" vertex="1" parent="1yT-rM3PaVei-R1yD0Ry-20">
          <mxGeometry y="26" width="190" height="274" as="geometry" />
        </mxCell>
        <mxCell id="1yT-rM3PaVei-R1yD0Ry-22" value="" style="line;strokeWidth=1;fillColor=none;align=left;verticalAlign=middle;spacingTop=-1;spacingLeft=3;spacingRight=3;rotatable=0;labelPosition=right;points=[];portConstraint=eastwest;strokeColor=inherit;fontFamily=Helvetica;fontSize=12;fontColor=default;" vertex="1" parent="1yT-rM3PaVei-R1yD0Ry-20">
          <mxGeometry y="300" width="190" height="8" as="geometry" />
        </mxCell>
        <mxCell id="1yT-rM3PaVei-R1yD0Ry-23" value="&lt;p style=&quot;margin: 0px 0px 0px 4px;&quot;&gt;+ __init__(self, game: PikachuGame):&amp;nbsp;&lt;span style=&quot;background-color: initial;&quot;&gt;None&lt;/span&gt;&lt;br&gt;&lt;/p&gt;&lt;p style=&quot;margin: 0px 0px 0px 4px;&quot;&gt;&lt;br&gt;&lt;/p&gt;&lt;p style=&quot;margin: 0px 0px 0px 4px;&quot;&gt;+ display(self):&amp;nbsp;&lt;span style=&quot;background-color: initial;&quot;&gt;None&lt;/span&gt;&lt;/p&gt;&lt;p style=&quot;margin: 0px 0px 0px 4px;&quot;&gt;&lt;br&gt;+ draw_dark_image(self, image: Surface, image_rect: Rect, color: tuple):&amp;nbsp;&lt;span style=&quot;background-color: initial;&quot;&gt;None&lt;/span&gt;&lt;/p&gt;&lt;p style=&quot;margin: 0px 0px 0px 4px;&quot;&gt;&lt;br&gt;&lt;/p&gt;&lt;p style=&quot;margin: 0px 0px 0px 4px;&quot;&gt;+ handle_event(self,event: event.Event):&amp;nbsp;&lt;span style=&quot;background-color: initial;&quot;&gt;None&lt;/span&gt;&lt;/p&gt;&lt;p style=&quot;margin: 0px 0px 0px 4px;&quot;&gt;&lt;br&gt;&lt;/p&gt;&lt;p style=&quot;margin: 0px 0px 0px 4px;&quot;&gt;+&amp;nbsp;playing(self):&amp;nbsp;&lt;span style=&quot;background-color: initial;&quot;&gt;None&lt;/span&gt;&lt;/p&gt;&lt;p style=&quot;margin: 0px 0px 0px 4px;&quot;&gt;&lt;br&gt;&lt;/p&gt;&lt;p style=&quot;margin: 0px 0px 0px 4px;&quot;&gt;+ check_time(self, start_time: float,&amp;nbsp;&lt;span style=&quot;background-color: initial;&quot;&gt;bonus_time: int): int&lt;/span&gt;&lt;/p&gt;&lt;p style=&quot;margin: 0px 0px 0px 4px;&quot;&gt;&lt;span style=&quot;background-color: initial;&quot;&gt;&lt;br&gt;&lt;/span&gt;&lt;/p&gt;&lt;p style=&quot;margin: 0px 0px 0px 4px;&quot;&gt;&lt;span style=&quot;background-color: initial;&quot;&gt;+ draw&lt;/span&gt;&lt;span style=&quot;background-color: initial;&quot;&gt;_time_bar(self, start_time: float,&amp;nbsp;&lt;/span&gt;&lt;span style=&quot;background-color: initial;&quot;&gt;bonus_time: int):&amp;nbsp;&lt;/span&gt;&lt;span style=&quot;background-color: initial;&quot;&gt;None&lt;/span&gt;&lt;/p&gt;&lt;p style=&quot;margin: 0px 0px 0px 4px;&quot;&gt;&lt;span style=&quot;background-color: initial;&quot;&gt;&lt;br&gt;&lt;/span&gt;&lt;/p&gt;&lt;p style=&quot;margin: 0px 0px 0px 4px;&quot;&gt;&lt;span style=&quot;background-color: initial;&quot;&gt;+&amp;nbsp;&lt;/span&gt;&lt;span style=&quot;background-color: initial;&quot;&gt;draw_lives(self,lives: int, level: int):&amp;nbsp;&lt;/span&gt;&lt;span style=&quot;background-color: initial;&quot;&gt;None&lt;/span&gt;&lt;/p&gt;&lt;p style=&quot;margin: 0px 0px 0px 4px;&quot;&gt;&lt;span style=&quot;background-color: initial;&quot;&gt;&lt;br&gt;&lt;/span&gt;&lt;/p&gt;&lt;p style=&quot;margin: 0px 0px 0px 4px;&quot;&gt;&lt;span style=&quot;background-color: initial;&quot;&gt;+&amp;nbsp;&lt;/span&gt;&lt;span style=&quot;background-color: initial;&quot;&gt;panel_pause(self,mouse_x: int, mouse_y: int, mouse_clicked: bool): int&lt;/span&gt;&lt;/p&gt;&lt;p style=&quot;margin: 0px 0px 0px 4px;&quot;&gt;&lt;span style=&quot;background-color: initial;&quot;&gt;&lt;br&gt;&lt;/span&gt;&lt;/p&gt;&lt;p style=&quot;margin: 0px 0px 0px 4px;&quot;&gt;&lt;span style=&quot;background-color: initial;&quot;&gt;+ draw&lt;/span&gt;&lt;span style=&quot;background-color: initial;&quot;&gt;_pause_button(self,&lt;/span&gt;&lt;/p&gt;&lt;p style=&quot;margin: 0px 0px 0px 4px;&quot;&gt;&lt;span style=&quot;background-color: initial;&quot;&gt;mouse_x: int, mouse_y: int, mouse_clicked: bool):&amp;nbsp;&lt;/span&gt;&lt;span style=&quot;background-color: initial;&quot;&gt;None&lt;/span&gt;&lt;span style=&quot;background-color: initial;&quot;&gt;&lt;br&gt;&lt;/span&gt;&lt;/p&gt;&lt;p style=&quot;margin: 0px 0px 0px 4px;&quot;&gt;&lt;span style=&quot;background-color: initial;&quot;&gt;&lt;br&gt;&lt;/span&gt;&lt;/p&gt;&lt;p style=&quot;margin: 0px 0px 0px 4px;&quot;&gt;&lt;span style=&quot;background-color: initial;&quot;&gt;+ sound&lt;/span&gt;&lt;span style=&quot;background-color: initial;&quot;&gt;_pause_button(&lt;/span&gt;&lt;/p&gt;&lt;p style=&quot;margin: 0px 0px 0px 4px;&quot;&gt;&lt;span style=&quot;background-color: initial;&quot;&gt;self,&amp;nbsp;&lt;/span&gt;&lt;span style=&quot;background-color: initial;&quot;&gt;mouse_x: int, mouse_y: int, mouse_clicked: bool):&amp;nbsp;&lt;/span&gt;&lt;span style=&quot;background-color: initial;&quot;&gt;None&lt;/span&gt;&lt;/p&gt;&lt;p style=&quot;margin: 0px 0px 0px 4px;&quot;&gt;&lt;span style=&quot;background-color: initial;&quot;&gt;&lt;br&gt;&lt;/span&gt;&lt;/p&gt;&lt;p style=&quot;margin: 0px 0px 0px 4px;&quot;&gt;&lt;span style=&quot;background-color: initial;&quot;&gt;+&amp;nbsp;&lt;/span&gt;&lt;span style=&quot;background-color: initial;&quot;&gt;show_dim_screen(self):&amp;nbsp;&lt;/span&gt;&lt;span style=&quot;background-color: initial;&quot;&gt;None&lt;/span&gt;&lt;/p&gt;&lt;p style=&quot;margin: 0px 0px 0px 4px;&quot;&gt;&lt;span style=&quot;background-color: initial;&quot;&gt;&lt;br&gt;&lt;/span&gt;&lt;/p&gt;&lt;p style=&quot;margin: 0px 0px 0px 4px;&quot;&gt;&lt;span style=&quot;background-color: initial;&quot;&gt;+&amp;nbsp;&lt;/span&gt;&lt;span style=&quot;background-color: initial;&quot;&gt;get_index_at_mouse(self,x: int, y: int):&amp;nbsp;&lt;/span&gt;&lt;span style=&quot;background-color: initial;&quot;&gt;None&lt;/span&gt;&lt;/p&gt;&lt;p style=&quot;margin: 0px 0px 0px 4px;&quot;&gt;&lt;span style=&quot;background-color: initial;&quot;&gt;&lt;br&gt;&lt;/span&gt;&lt;/p&gt;&lt;p style=&quot;margin: 0px 0px 0px 4px;&quot;&gt;&lt;span style=&quot;background-color: initial;&quot;&gt;+&amp;nbsp;&lt;/span&gt;&lt;span style=&quot;background-color: initial;&quot;&gt;update_difficulty(self,board: List, level: int, tile1_i: int, tile1_j: int, tile2_i: int, tile2_j: int):&amp;nbsp;&lt;/span&gt;&lt;span style=&quot;background-color: initial;&quot;&gt;None&lt;/span&gt;&lt;/p&gt;&lt;p style=&quot;margin: 0px 0px 0px 4px;&quot;&gt;&lt;span style=&quot;background-color: initial;&quot;&gt;&lt;br&gt;&lt;/span&gt;&lt;/p&gt;&lt;p style=&quot;margin: 0px 0px 0px 4px;&quot;&gt;&lt;span style=&quot;background-color: initial;&quot;&gt;+ is_level_complete&lt;/span&gt;&lt;/p&gt;&lt;p style=&quot;margin: 0px 0px 0px 4px;&quot;&gt;&lt;span style=&quot;background-color: initial;&quot;&gt;(self,board: List): bool&lt;br&gt;&lt;/span&gt;&lt;/p&gt;" style="text;strokeColor=none;fillColor=none;align=left;verticalAlign=top;spacingLeft=4;spacingRight=4;overflow=hidden;rotatable=0;points=[[0,0.5],[1,0.5]];portConstraint=eastwest;whiteSpace=wrap;html=1;fontFamily=Helvetica;fontSize=12;fontColor=default;" vertex="1" parent="1yT-rM3PaVei-R1yD0Ry-20">
          <mxGeometry y="308" width="190" height="712" as="geometry" />
        </mxCell>
        <mxCell id="1yT-rM3PaVei-R1yD0Ry-25" value="&lt;span style=&quot;font-weight: 400; text-align: left;&quot;&gt;PikachuGame&lt;/span&gt;" style="swimlane;fontStyle=1;align=center;verticalAlign=top;childLayout=stackLayout;horizontal=1;startSize=26;horizontalStack=0;resizeParent=1;resizeParentMax=0;resizeLast=0;collapsible=1;marginBottom=0;whiteSpace=wrap;html=1;strokeColor=default;fontFamily=Helvetica;fontSize=12;fontColor=default;fillColor=default;" vertex="1" parent="1">
          <mxGeometry x="335" y="-470" width="160" height="470" as="geometry" />
        </mxCell>
        <mxCell id="1yT-rM3PaVei-R1yD0Ry-26" value="&lt;div&gt;- gameWidth : int&lt;/div&gt;&lt;div&gt;- gameHeight : int&lt;/div&gt;&lt;div&gt;- screen : Surface&lt;/div&gt;&lt;div&gt;- start_music : startMusic&lt;/div&gt;&lt;div&gt;- click_sound : effectSound&lt;/div&gt;&lt;div&gt;- play_fail_sound : effectSound&lt;/div&gt;&lt;div&gt;- clicked_tile_sound : effectSound&lt;/div&gt;&lt;div&gt;- play_success_sound : effectSound&lt;/div&gt;&lt;div&gt;- game_over_music : gameOverSound&lt;/div&gt;&lt;div&gt;- victory_music : gameOverSound&lt;/div&gt;&lt;div&gt;- sound_image : Surface&lt;/div&gt;&lt;div&gt;- sound_on : bool&lt;/div&gt;&lt;div&gt;- intro_screen : introScreen&lt;/div&gt;&lt;div&gt;- start_screen : startScreen&lt;/div&gt;&lt;div&gt;- play_screen : playScreen&lt;/div&gt;&lt;div&gt;- current_screen : Screen&lt;/div&gt;&lt;div&gt;&lt;br&gt;&lt;/div&gt;" style="text;strokeColor=none;fillColor=none;align=left;verticalAlign=top;spacingLeft=4;spacingRight=4;overflow=hidden;rotatable=0;points=[[0,0.5],[1,0.5]];portConstraint=eastwest;whiteSpace=wrap;html=1;fontFamily=Helvetica;fontSize=12;fontColor=default;" vertex="1" parent="1yT-rM3PaVei-R1yD0Ry-25">
          <mxGeometry y="26" width="160" height="354" as="geometry" />
        </mxCell>
        <mxCell id="1yT-rM3PaVei-R1yD0Ry-27" value="" style="line;strokeWidth=1;fillColor=none;align=left;verticalAlign=middle;spacingTop=-1;spacingLeft=3;spacingRight=3;rotatable=0;labelPosition=right;points=[];portConstraint=eastwest;strokeColor=inherit;fontFamily=Helvetica;fontSize=12;fontColor=default;" vertex="1" parent="1yT-rM3PaVei-R1yD0Ry-25">
          <mxGeometry y="380" width="160" height="8" as="geometry" />
        </mxCell>
        <mxCell id="1yT-rM3PaVei-R1yD0Ry-28" value="&lt;div&gt;+ __init__(self): None&lt;/div&gt;+&amp;nbsp;set_screen(self, screen:Screen): None&lt;div&gt;&lt;br&gt;&lt;/div&gt;&lt;div&gt;+&amp;nbsp;run_game_loop(self): None&lt;/div&gt;" style="text;strokeColor=none;fillColor=none;align=left;verticalAlign=top;spacingLeft=4;spacingRight=4;overflow=hidden;rotatable=0;points=[[0,0.5],[1,0.5]];portConstraint=eastwest;whiteSpace=wrap;html=1;fontFamily=Helvetica;fontSize=12;fontColor=default;" vertex="1" parent="1yT-rM3PaVei-R1yD0Ry-25">
          <mxGeometry y="388" width="160" height="82" as="geometry" />
        </mxCell>
        <mxCell id="1yT-rM3PaVei-R1yD0Ry-29" value="" style="endArrow=open;endFill=1;endSize=12;html=1;rounded=0;fontFamily=Helvetica;fontSize=12;fontColor=default;exitX=0.5;exitY=0;exitDx=0;exitDy=0;entryX=0.519;entryY=1.032;entryDx=0;entryDy=0;entryPerimeter=0;" edge="1" parent="1" source="1yT-rM3PaVei-R1yD0Ry-3" target="1yT-rM3PaVei-R1yD0Ry-28">
          <mxGeometry width="160" relative="1" as="geometry">
            <mxPoint x="140" y="370" as="sourcePoint" />
            <mxPoint x="410" y="10" as="targetPoint" />
          </mxGeometry>
        </mxCell>
        <mxCell id="1yT-rM3PaVei-R1yD0Ry-32" value="&lt;p style=&quot;margin:0px;margin-top:4px;text-align:center;&quot;&gt;&lt;i&gt;&amp;lt;&amp;lt;&lt;/i&gt;&lt;i style=&quot;text-align: left;&quot;&gt;abstract&lt;/i&gt;&lt;i&gt;&amp;gt;&amp;gt;&lt;/i&gt;&lt;br&gt;&lt;b&gt;Music&lt;/b&gt;&lt;/p&gt;&lt;hr size=&quot;1&quot; style=&quot;border-style:solid;&quot;&gt;&lt;p style=&quot;margin:0px;margin-left:4px;&quot;&gt;+ src: str&lt;br&gt;&lt;/p&gt;&lt;hr size=&quot;1&quot; style=&quot;border-style:solid;&quot;&gt;&lt;p style=&quot;margin: 0px 0px 0px 4px;&quot;&gt;+ __init__(self,src: str): None&lt;/p&gt;&lt;p style=&quot;margin:0px;margin-left:4px;&quot;&gt;+ play(self): None&lt;br&gt;+ stop(self): None&lt;/p&gt;" style="verticalAlign=top;align=left;overflow=fill;html=1;whiteSpace=wrap;strokeColor=default;fontFamily=Helvetica;fontSize=12;fontColor=default;fillColor=default;" vertex="1" parent="1">
          <mxGeometry x="690" y="90" width="190" height="140" as="geometry" />
        </mxCell>
        <mxCell id="1yT-rM3PaVei-R1yD0Ry-33" value="&lt;p style=&quot;margin:0px;margin-top:4px;text-align:center;&quot;&gt;&lt;i&gt;&amp;lt;&amp;lt;&lt;/i&gt;&lt;i style=&quot;text-align: left;&quot;&gt;abstract&lt;/i&gt;&lt;i&gt;&amp;gt;&amp;gt;&lt;/i&gt;&lt;br&gt;&lt;b&gt;Sound&lt;/b&gt;&lt;/p&gt;&lt;hr size=&quot;1&quot; style=&quot;border-style:solid;&quot;&gt;&lt;p style=&quot;margin:0px;margin-left:4px;&quot;&gt;+ src: str&lt;br&gt;&lt;/p&gt;&lt;hr size=&quot;1&quot; style=&quot;border-style:solid;&quot;&gt;&lt;p style=&quot;margin:0px;margin-left:4px;&quot;&gt;+ __init__(self,src: str): None&lt;br&gt;&lt;/p&gt;&lt;p style=&quot;margin:0px;margin-left:4px;&quot;&gt;&lt;span style=&quot;background-color: initial;&quot;&gt;# play(self): None&lt;/span&gt;&lt;br&gt;&lt;/p&gt;&lt;p style=&quot;margin:0px;margin-left:4px;&quot;&gt;# set_volume(self): None&lt;/p&gt;" style="verticalAlign=top;align=left;overflow=fill;html=1;whiteSpace=wrap;strokeColor=default;fontFamily=Helvetica;fontSize=12;fontColor=default;fillColor=default;" vertex="1" parent="1">
          <mxGeometry x="-130" y="60" width="190" height="140" as="geometry" />
        </mxCell>
        <mxCell id="1yT-rM3PaVei-R1yD0Ry-34" value="effectSound" style="swimlane;fontStyle=1;align=center;verticalAlign=top;childLayout=stackLayout;horizontal=1;startSize=26;horizontalStack=0;resizeParent=1;resizeParentMax=0;resizeLast=0;collapsible=1;marginBottom=0;whiteSpace=wrap;html=1;strokeColor=default;fontFamily=Helvetica;fontSize=12;fontColor=default;fillColor=default;" vertex="1" parent="1">
          <mxGeometry x="-260" y="310" width="160" height="150" as="geometry" />
        </mxCell>
        <mxCell id="1yT-rM3PaVei-R1yD0Ry-35" value="&lt;div&gt;- effect_sound : Sound&lt;/div&gt;" style="text;strokeColor=none;fillColor=none;align=left;verticalAlign=top;spacingLeft=4;spacingRight=4;overflow=hidden;rotatable=0;points=[[0,0.5],[1,0.5]];portConstraint=eastwest;whiteSpace=wrap;html=1;fontFamily=Helvetica;fontSize=12;fontColor=default;" vertex="1" parent="1yT-rM3PaVei-R1yD0Ry-34">
          <mxGeometry y="26" width="160" height="34" as="geometry" />
        </mxCell>
        <mxCell id="1yT-rM3PaVei-R1yD0Ry-36" value="" style="line;strokeWidth=1;fillColor=none;align=left;verticalAlign=middle;spacingTop=-1;spacingLeft=3;spacingRight=3;rotatable=0;labelPosition=right;points=[];portConstraint=eastwest;strokeColor=inherit;fontFamily=Helvetica;fontSize=12;fontColor=default;" vertex="1" parent="1yT-rM3PaVei-R1yD0Ry-34">
          <mxGeometry y="60" width="160" height="8" as="geometry" />
        </mxCell>
        <mxCell id="1yT-rM3PaVei-R1yD0Ry-37" value="&lt;div&gt;+ __init__(self,src: str): None&lt;br&gt;&lt;/div&gt;+&amp;nbsp;&lt;span style=&quot;background-color: initial;&quot;&gt;play(self): None&lt;/span&gt;&lt;div&gt;&lt;span style=&quot;background-color: initial;&quot;&gt;+ set_volume(self): None&lt;/span&gt;&lt;/div&gt;" style="text;strokeColor=none;fillColor=none;align=left;verticalAlign=top;spacingLeft=4;spacingRight=4;overflow=hidden;rotatable=0;points=[[0,0.5],[1,0.5]];portConstraint=eastwest;whiteSpace=wrap;html=1;fontFamily=Helvetica;fontSize=12;fontColor=default;" vertex="1" parent="1yT-rM3PaVei-R1yD0Ry-34">
          <mxGeometry y="68" width="160" height="82" as="geometry" />
        </mxCell>
        <mxCell id="1yT-rM3PaVei-R1yD0Ry-38" value="gameOverSound" style="swimlane;fontStyle=1;align=center;verticalAlign=top;childLayout=stackLayout;horizontal=1;startSize=26;horizontalStack=0;resizeParent=1;resizeParentMax=0;resizeLast=0;collapsible=1;marginBottom=0;whiteSpace=wrap;html=1;strokeColor=default;fontFamily=Helvetica;fontSize=12;fontColor=default;fillColor=default;" vertex="1" parent="1">
          <mxGeometry x="40" y="320" width="160" height="150" as="geometry" />
        </mxCell>
        <mxCell id="1yT-rM3PaVei-R1yD0Ry-39" value="&lt;div&gt;- game_over_sound : Sound&lt;/div&gt;" style="text;strokeColor=none;fillColor=none;align=left;verticalAlign=top;spacingLeft=4;spacingRight=4;overflow=hidden;rotatable=0;points=[[0,0.5],[1,0.5]];portConstraint=eastwest;whiteSpace=wrap;html=1;fontFamily=Helvetica;fontSize=12;fontColor=default;" vertex="1" parent="1yT-rM3PaVei-R1yD0Ry-38">
          <mxGeometry y="26" width="160" height="34" as="geometry" />
        </mxCell>
        <mxCell id="1yT-rM3PaVei-R1yD0Ry-40" value="" style="line;strokeWidth=1;fillColor=none;align=left;verticalAlign=middle;spacingTop=-1;spacingLeft=3;spacingRight=3;rotatable=0;labelPosition=right;points=[];portConstraint=eastwest;strokeColor=inherit;fontFamily=Helvetica;fontSize=12;fontColor=default;" vertex="1" parent="1yT-rM3PaVei-R1yD0Ry-38">
          <mxGeometry y="60" width="160" height="8" as="geometry" />
        </mxCell>
        <mxCell id="1yT-rM3PaVei-R1yD0Ry-41" value="&lt;div&gt;+ __init__(self,src: str): None&lt;br&gt;&lt;/div&gt;+&amp;nbsp;&lt;span style=&quot;background-color: initial;&quot;&gt;play(self): None&lt;/span&gt;&lt;div&gt;&lt;span style=&quot;background-color: initial;&quot;&gt;+ set_volume(self): None&lt;/span&gt;&lt;/div&gt;" style="text;strokeColor=none;fillColor=none;align=left;verticalAlign=top;spacingLeft=4;spacingRight=4;overflow=hidden;rotatable=0;points=[[0,0.5],[1,0.5]];portConstraint=eastwest;whiteSpace=wrap;html=1;fontFamily=Helvetica;fontSize=12;fontColor=default;" vertex="1" parent="1yT-rM3PaVei-R1yD0Ry-38">
          <mxGeometry y="68" width="160" height="82" as="geometry" />
        </mxCell>
        <mxCell id="1yT-rM3PaVei-R1yD0Ry-42" value="" style="endArrow=open;endFill=1;endSize=12;html=1;rounded=0;fontFamily=Helvetica;fontSize=12;fontColor=default;entryX=0.5;entryY=1;entryDx=0;entryDy=0;exitX=0.5;exitY=0;exitDx=0;exitDy=0;" edge="1" parent="1" source="1yT-rM3PaVei-R1yD0Ry-38" target="1yT-rM3PaVei-R1yD0Ry-33">
          <mxGeometry width="160" relative="1" as="geometry">
            <mxPoint x="200" y="240" as="sourcePoint" />
            <mxPoint x="360" y="240" as="targetPoint" />
          </mxGeometry>
        </mxCell>
        <mxCell id="1yT-rM3PaVei-R1yD0Ry-43" value="" style="endArrow=open;endFill=1;endSize=12;html=1;rounded=0;fontFamily=Helvetica;fontSize=12;fontColor=default;exitX=0.5;exitY=0;exitDx=0;exitDy=0;" edge="1" parent="1" source="1yT-rM3PaVei-R1yD0Ry-34">
          <mxGeometry width="160" relative="1" as="geometry">
            <mxPoint x="-5" y="330" as="sourcePoint" />
            <mxPoint x="-60" y="200" as="targetPoint" />
          </mxGeometry>
        </mxCell>
        <mxCell id="1yT-rM3PaVei-R1yD0Ry-44" value="" style="endArrow=open;endFill=1;endSize=12;html=1;rounded=0;fontFamily=Helvetica;fontSize=12;fontColor=default;entryX=0.374;entryY=1.019;entryDx=0;entryDy=0;entryPerimeter=0;exitX=0.455;exitY=0.001;exitDx=0;exitDy=0;exitPerimeter=0;" edge="1" parent="1" source="1yT-rM3PaVei-R1yD0Ry-33" target="1yT-rM3PaVei-R1yD0Ry-28">
          <mxGeometry width="160" relative="1" as="geometry">
            <mxPoint x="200" as="sourcePoint" />
            <mxPoint x="360" as="targetPoint" />
          </mxGeometry>
        </mxCell>
        <mxCell id="1yT-rM3PaVei-R1yD0Ry-45" value="introMusic" style="swimlane;fontStyle=1;align=center;verticalAlign=top;childLayout=stackLayout;horizontal=1;startSize=26;horizontalStack=0;resizeParent=1;resizeParentMax=0;resizeLast=0;collapsible=1;marginBottom=0;whiteSpace=wrap;html=1;strokeColor=default;fontFamily=Helvetica;fontSize=12;fontColor=default;fillColor=default;" vertex="1" parent="1">
          <mxGeometry x="550" y="330" width="160" height="116" as="geometry" />
        </mxCell>
        <mxCell id="1yT-rM3PaVei-R1yD0Ry-47" value="" style="line;strokeWidth=1;fillColor=none;align=left;verticalAlign=middle;spacingTop=-1;spacingLeft=3;spacingRight=3;rotatable=0;labelPosition=right;points=[];portConstraint=eastwest;strokeColor=inherit;fontFamily=Helvetica;fontSize=12;fontColor=default;" vertex="1" parent="1yT-rM3PaVei-R1yD0Ry-45">
          <mxGeometry y="26" width="160" height="8" as="geometry" />
        </mxCell>
        <mxCell id="1yT-rM3PaVei-R1yD0Ry-48" value="&lt;div&gt;+ __init__(self,src: str): None&lt;br&gt;&lt;/div&gt;+&amp;nbsp;&lt;span style=&quot;background-color: initial;&quot;&gt;play(self): None&lt;/span&gt;&lt;div&gt;&lt;span style=&quot;background-color: initial;&quot;&gt;+ stop(self): None&lt;/span&gt;&lt;/div&gt;" style="text;strokeColor=none;fillColor=none;align=left;verticalAlign=top;spacingLeft=4;spacingRight=4;overflow=hidden;rotatable=0;points=[[0,0.5],[1,0.5]];portConstraint=eastwest;whiteSpace=wrap;html=1;fontFamily=Helvetica;fontSize=12;fontColor=default;" vertex="1" parent="1yT-rM3PaVei-R1yD0Ry-45">
          <mxGeometry y="34" width="160" height="82" as="geometry" />
        </mxCell>
        <mxCell id="1yT-rM3PaVei-R1yD0Ry-49" value="startMusic" style="swimlane;fontStyle=1;align=center;verticalAlign=top;childLayout=stackLayout;horizontal=1;startSize=26;horizontalStack=0;resizeParent=1;resizeParentMax=0;resizeLast=0;collapsible=1;marginBottom=0;whiteSpace=wrap;html=1;strokeColor=default;fontFamily=Helvetica;fontSize=12;fontColor=default;fillColor=default;" vertex="1" parent="1">
          <mxGeometry x="840" y="320" width="160" height="116" as="geometry" />
        </mxCell>
        <mxCell id="1yT-rM3PaVei-R1yD0Ry-51" value="" style="line;strokeWidth=1;fillColor=none;align=left;verticalAlign=middle;spacingTop=-1;spacingLeft=3;spacingRight=3;rotatable=0;labelPosition=right;points=[];portConstraint=eastwest;strokeColor=inherit;fontFamily=Helvetica;fontSize=12;fontColor=default;" vertex="1" parent="1yT-rM3PaVei-R1yD0Ry-49">
          <mxGeometry y="26" width="160" height="8" as="geometry" />
        </mxCell>
        <mxCell id="1yT-rM3PaVei-R1yD0Ry-52" value="&lt;div&gt;+ __init__(self,src: str): None&lt;br&gt;&lt;/div&gt;+&amp;nbsp;&lt;span style=&quot;background-color: initial;&quot;&gt;play(self): None&lt;/span&gt;&lt;div&gt;&lt;span style=&quot;background-color: initial;&quot;&gt;+ stop(self): None&lt;/span&gt;&lt;/div&gt;" style="text;strokeColor=none;fillColor=none;align=left;verticalAlign=top;spacingLeft=4;spacingRight=4;overflow=hidden;rotatable=0;points=[[0,0.5],[1,0.5]];portConstraint=eastwest;whiteSpace=wrap;html=1;fontFamily=Helvetica;fontSize=12;fontColor=default;" vertex="1" parent="1yT-rM3PaVei-R1yD0Ry-49">
          <mxGeometry y="34" width="160" height="82" as="geometry" />
        </mxCell>
        <mxCell id="1yT-rM3PaVei-R1yD0Ry-53" value="" style="endArrow=open;endFill=1;endSize=12;html=1;rounded=0;fontFamily=Helvetica;fontSize=12;fontColor=default;entryX=0.463;entryY=1.004;entryDx=0;entryDy=0;entryPerimeter=0;exitX=0.5;exitY=0;exitDx=0;exitDy=0;" edge="1" parent="1" source="1yT-rM3PaVei-R1yD0Ry-45" target="1yT-rM3PaVei-R1yD0Ry-32">
          <mxGeometry width="160" relative="1" as="geometry">
            <mxPoint x="510" y="240" as="sourcePoint" />
            <mxPoint x="780" y="240" as="targetPoint" />
          </mxGeometry>
        </mxCell>
        <mxCell id="1yT-rM3PaVei-R1yD0Ry-54" value="" style="endArrow=open;endFill=1;endSize=12;html=1;rounded=0;fontFamily=Helvetica;fontSize=12;fontColor=default;entryX=0.535;entryY=1.021;entryDx=0;entryDy=0;entryPerimeter=0;exitX=0.478;exitY=-0.031;exitDx=0;exitDy=0;exitPerimeter=0;" edge="1" parent="1" source="1yT-rM3PaVei-R1yD0Ry-49" target="1yT-rM3PaVei-R1yD0Ry-32">
          <mxGeometry width="160" relative="1" as="geometry">
            <mxPoint x="640" y="340" as="sourcePoint" />
            <mxPoint x="788" y="241" as="targetPoint" />
          </mxGeometry>
        </mxCell>
        <mxCell id="1yT-rM3PaVei-R1yD0Ry-55" value="" style="endArrow=open;endFill=1;endSize=12;html=1;rounded=0;fontFamily=Helvetica;fontSize=12;fontColor=default;entryX=0.749;entryY=1.002;entryDx=0;entryDy=0;entryPerimeter=0;exitX=0.568;exitY=-0.013;exitDx=0;exitDy=0;exitPerimeter=0;" edge="1" parent="1" source="1yT-rM3PaVei-R1yD0Ry-32" target="1yT-rM3PaVei-R1yD0Ry-28">
          <mxGeometry width="160" relative="1" as="geometry">
            <mxPoint x="-34" y="70" as="sourcePoint" />
            <mxPoint x="405" y="12" as="targetPoint" />
          </mxGeometry>
        </mxCell>
        <mxCell id="1yT-rM3PaVei-R1yD0Ry-64" value="" style="endArrow=open;endFill=1;endSize=12;html=1;rounded=0;fontFamily=Helvetica;fontSize=12;fontColor=default;entryX=0.476;entryY=1.004;entryDx=0;entryDy=0;entryPerimeter=0;exitX=0.569;exitY=-0.006;exitDx=0;exitDy=0;exitPerimeter=0;" edge="1" parent="1" target="1yT-rM3PaVei-R1yD0Ry-23">
          <mxGeometry width="160" relative="1" as="geometry">
            <mxPoint x="599.6599999999999" y="1779.3760000000002" as="sourcePoint" />
            <mxPoint x="490" y="1840" as="targetPoint" />
          </mxGeometry>
        </mxCell>
        <mxCell id="1yT-rM3PaVei-R1yD0Ry-65" value="" style="endArrow=open;endFill=1;endSize=12;html=1;rounded=0;fontFamily=Helvetica;fontSize=12;fontColor=default;entryX=1.002;entryY=0.017;entryDx=0;entryDy=0;entryPerimeter=0;exitX=0.443;exitY=-0.044;exitDx=0;exitDy=0;exitPerimeter=0;" edge="1" parent="1" source="1yT-rM3PaVei-R1yD0Ry-67" target="1yT-rM3PaVei-R1yD0Ry-20">
          <mxGeometry width="160" relative="1" as="geometry">
            <mxPoint x="880" y="1450" as="sourcePoint" />
            <mxPoint x="810.0000000000001" y="640" as="targetPoint" />
          </mxGeometry>
        </mxCell>
        <mxCell id="1yT-rM3PaVei-R1yD0Ry-66" value="" style="endArrow=open;endFill=1;endSize=12;html=1;rounded=0;fontFamily=Helvetica;fontSize=12;fontColor=default;entryX=0.923;entryY=-0.013;entryDx=0;entryDy=0;entryPerimeter=0;exitX=0.443;exitY=1.085;exitDx=0;exitDy=0;exitPerimeter=0;" edge="1" parent="1" source="1yT-rM3PaVei-R1yD0Ry-70">
          <mxGeometry width="160" relative="1" as="geometry">
            <mxPoint x="880.4200000000001" y="1564.208" as="sourcePoint" />
            <mxPoint x="649.2200000000003" y="1778.6480000000001" as="targetPoint" />
          </mxGeometry>
        </mxCell>
        <mxCell id="1yT-rM3PaVei-R1yD0Ry-67" value="&lt;span style=&quot;font-weight: 400;&quot;&gt;bfsAlgorithme&lt;/span&gt;" style="swimlane;fontStyle=1;align=center;verticalAlign=top;childLayout=stackLayout;horizontal=1;startSize=26;horizontalStack=0;resizeParent=1;resizeParentMax=0;resizeLast=0;collapsible=1;marginBottom=0;whiteSpace=wrap;html=1;strokeColor=default;fontFamily=Helvetica;fontSize=12;fontColor=default;fillColor=default;" vertex="1" parent="1">
          <mxGeometry x="820" y="1460" width="160" height="160" as="geometry" />
        </mxCell>
        <mxCell id="1yT-rM3PaVei-R1yD0Ry-68" value="- board: List&lt;div&gt;- n : int&lt;/div&gt;&lt;div&gt;- m : int&lt;br&gt;&lt;/div&gt;" style="text;strokeColor=none;fillColor=none;align=left;verticalAlign=top;spacingLeft=4;spacingRight=4;overflow=hidden;rotatable=0;points=[[0,0.5],[1,0.5]];portConstraint=eastwest;whiteSpace=wrap;html=1;fontFamily=Helvetica;fontSize=12;fontColor=default;" vertex="1" parent="1yT-rM3PaVei-R1yD0Ry-67">
          <mxGeometry y="26" width="160" height="44" as="geometry" />
        </mxCell>
        <mxCell id="1yT-rM3PaVei-R1yD0Ry-69" value="" style="line;strokeWidth=1;fillColor=none;align=left;verticalAlign=middle;spacingTop=-1;spacingLeft=3;spacingRight=3;rotatable=0;labelPosition=right;points=[];portConstraint=eastwest;strokeColor=inherit;fontFamily=Helvetica;fontSize=12;fontColor=default;" vertex="1" parent="1yT-rM3PaVei-R1yD0Ry-67">
          <mxGeometry y="70" width="160" height="8" as="geometry" />
        </mxCell>
        <mxCell id="1yT-rM3PaVei-R1yD0Ry-70" value="&lt;p style=&quot;margin: 0px 0px 0px 4px;&quot;&gt;+ __init__(self, board: List):&amp;nbsp;&lt;span style=&quot;background-color: initial;&quot;&gt;None&lt;/span&gt;&lt;br&gt;&lt;/p&gt;&lt;p style=&quot;margin: 0px 0px 0px 4px;&quot;&gt;+ algo((self, tile1_i: int, tile1_j&lt;span style=&quot;background-color: initial;&quot;&gt;: int&lt;/span&gt;&lt;span style=&quot;background-color: initial;&quot;&gt;, tile2_i&lt;/span&gt;&lt;span style=&quot;background-color: initial;&quot;&gt;: int&lt;/span&gt;&lt;span style=&quot;background-color: initial;&quot;&gt;, tile2_j&lt;/span&gt;&lt;span style=&quot;background-color: initial;&quot;&gt;: int&lt;/span&gt;&lt;span style=&quot;background-color: initial;&quot;&gt;): List&lt;/span&gt;&lt;/p&gt;" style="text;strokeColor=none;fillColor=none;align=left;verticalAlign=top;spacingLeft=4;spacingRight=4;overflow=hidden;rotatable=0;points=[[0,0.5],[1,0.5]];portConstraint=eastwest;whiteSpace=wrap;html=1;fontFamily=Helvetica;fontSize=12;fontColor=default;" vertex="1" parent="1yT-rM3PaVei-R1yD0Ry-67">
          <mxGeometry y="78" width="160" height="82" as="geometry" />
        </mxCell>
        <mxCell id="1yT-rM3PaVei-R1yD0Ry-71" value="boardPlay" style="swimlane;fontStyle=1;align=center;verticalAlign=top;childLayout=stackLayout;horizontal=1;startSize=26;horizontalStack=0;resizeParent=1;resizeParentMax=0;resizeLast=0;collapsible=1;marginBottom=0;whiteSpace=wrap;html=1;strokeColor=default;fontFamily=Helvetica;fontSize=12;fontColor=default;fillColor=default;" vertex="1" parent="1">
          <mxGeometry x="525" y="1780" width="160" height="450" as="geometry" />
        </mxCell>
        <mxCell id="1yT-rM3PaVei-R1yD0Ry-72" value="- game: PikachuGame&lt;div&gt;&lt;br&gt;&lt;/div&gt;" style="text;strokeColor=none;fillColor=none;align=left;verticalAlign=top;spacingLeft=4;spacingRight=4;overflow=hidden;rotatable=0;points=[[0,0.5],[1,0.5]];portConstraint=eastwest;whiteSpace=wrap;html=1;fontFamily=Helvetica;fontSize=12;fontColor=default;" vertex="1" parent="1yT-rM3PaVei-R1yD0Ry-71">
          <mxGeometry y="26" width="160" height="26" as="geometry" />
        </mxCell>
        <mxCell id="1yT-rM3PaVei-R1yD0Ry-73" value="" style="line;strokeWidth=1;fillColor=none;align=left;verticalAlign=middle;spacingTop=-1;spacingLeft=3;spacingRight=3;rotatable=0;labelPosition=right;points=[];portConstraint=eastwest;strokeColor=inherit;fontFamily=Helvetica;fontSize=12;fontColor=default;" vertex="1" parent="1yT-rM3PaVei-R1yD0Ry-71">
          <mxGeometry y="52" width="160" height="8" as="geometry" />
        </mxCell>
        <mxCell id="1yT-rM3PaVei-R1yD0Ry-74" value="+ __init__(self, game: PikachuGame): None&lt;div&gt;&lt;br&gt;&lt;/div&gt;&lt;div&gt;&lt;div&gt;+ get_left_top_coords(self,i:int, j:int): Tuple&amp;nbsp;&lt;/div&gt;&lt;div&gt;+ get_center_coords(&lt;span style=&quot;background-color: initial;&quot;&gt;self,i:int, j:int&lt;/span&gt;&lt;span style=&quot;background-color: initial;&quot;&gt;)&lt;/span&gt;&lt;span style=&quot;background-color: initial;&quot;&gt;: Tuple&lt;/span&gt;&lt;/div&gt;&lt;div&gt;+ get_random_board(self): List&lt;/div&gt;&lt;div&gt;+ draw_clicked_tiles(self,&lt;/div&gt;&lt;div&gt;board: List, clicked_tiles: bool): None&lt;/div&gt;&lt;div&gt;+ draw_border_tile(self,&lt;/div&gt;&lt;div&gt;board:List, i:int, j: int) :None&lt;/div&gt;&lt;div&gt;+ draw_path(self, path: List): None&lt;/div&gt;&lt;div&gt;+ get_hint(self,board: List) : List&lt;/div&gt;&lt;div&gt;+ draw_hint(self,hint: List): None&lt;/div&gt;&lt;div&gt;+ reset_board(self,board: List): List&lt;/div&gt;&lt;div&gt;+ draw_board(self,board: List): None&lt;/div&gt;&lt;/div&gt;&lt;div&gt;&lt;div&gt;&lt;br&gt;&lt;/div&gt;&lt;/div&gt;" style="text;strokeColor=none;fillColor=none;align=left;verticalAlign=top;spacingLeft=4;spacingRight=4;overflow=hidden;rotatable=0;points=[[0,0.5],[1,0.5]];portConstraint=eastwest;whiteSpace=wrap;html=1;fontFamily=Helvetica;fontSize=12;fontColor=default;" vertex="1" parent="1yT-rM3PaVei-R1yD0Ry-71">
          <mxGeometry y="60" width="160" height="390" as="geometry" />
        </mxCell>
      </root>
    </mxGraphModel>
  </diagram>
</mxfile>
